<?xml version="1.0" standalone="no"?>
<!DOCTYPE svg PUBLIC "-//W3C//DTD SVG 20010904//EN"
 "http://www.w3.org/TR/2001/REC-SVG-20010904/DTD/svg10.dtd">
<svg version="1.0" xmlns="http://www.w3.org/2000/svg"
 width="200.000000pt" height="101.000000pt" viewBox="0 0 200.000000 101.000000"
 preserveAspectRatio="xMidYMid meet">

<g transform="translate(0.000000,101.000000) scale(0.100000,-0.100000)"
fill="#000000" stroke="none">
<path d="M1180 956 c0 -9 -7 -16 -15 -16 -11 0 -15 -12 -16 -42 -1 -24 -3 -34
-6 -23 -10 40 -23 39 -24 0 -1 -22 -4 -51 -8 -64 -5 -19 -8 -21 -18 -10 -6 8
-13 23 -16 34 -2 11 -5 0 -6 -25 -2 -58 -21 -34 -21 27 0 30 -5 45 -18 52 -30
16 -37 0 -38 -82 l-1 -77 33 6 c28 5 38 1 61 -22 l28 -29 45 47 c50 51 105 73
145 58 16 -6 27 -6 31 1 3 6 22 9 43 8 20 -1 49 4 66 10 16 7 38 10 48 7 15
-4 18 -1 13 17 -3 12 -6 36 -7 52 l-1 30 -14 -33 c-17 -38 -34 -34 -34 9 0 34
-29 41 -37 9 -3 -11 -11 -20 -18 -20 -7 0 -15 -5 -17 -11 -5 -15 -48 11 -48
28 0 7 -7 13 -16 13 -14 0 -16 -7 -11 -45 4 -25 3 -45 -3 -45 -5 0 -10 23 -12
52 -4 68 -28 79 -28 13 0 -28 -4 -44 -10 -40 -5 3 -10 -1 -10 -9 0 -9 -4 -16
-10 -16 -5 0 -11 -8 -12 -17 -1 -10 -4 22 -7 71 -4 58 -10 91 -18 94 -7 2 -13
-3 -13 -12z"/>
<path d="M710 414 c-72 -65 -132 -223 -116 -308 8 -44 45 -86 76 -86 22 0 99
64 89 75 -4 3 -20 -8 -37 -25 -69 -68 -122 -16 -109 108 11 101 102 252 153
252 18 0 18 -36 -1 -90 -18 -50 -18 -50 -6 -50 5 0 17 26 26 57 12 42 14 62 6
80 -15 32 -34 29 -81 -13z"/>
<path d="M1003 233 c-43 -82 -58 -90 -49 -28 4 26 10 54 13 61 3 8 0 14 -5 14
-6 0 -14 -16 -18 -35 -8 -42 -31 -66 -45 -44 -5 8 -9 22 -9 32 0 29 -25 19
-48 -20 l-22 -38 5 55 c4 37 3 50 -3 40 -12 -19 -31 -160 -22 -165 3 -2 21 26
40 63 25 50 35 62 38 47 6 -28 21 -45 36 -39 8 3 16 -4 19 -15 8 -33 34 -24
61 22 23 37 26 39 26 17 0 -41 16 -57 39 -43 17 11 21 10 26 -7 8 -27 27 -25
63 5 27 22 31 23 36 8 4 -10 -1 -28 -13 -43 -28 -39 -32 -90 -6 -90 19 0 35
31 35 69 0 22 9 37 33 55 39 30 47 32 47 12 0 -23 28 -45 49 -39 24 6 96 71
88 80 -4 3 -25 -11 -47 -31 -23 -21 -47 -35 -53 -33 -23 7 -18 38 12 73 35 39
42 78 14 72 -10 -2 -27 -20 -39 -41 -17 -32 -80 -87 -98 -87 -13 0 -10 39 6
72 23 47 23 58 -1 58 -20 0 -31 -18 -31 -54 0 -22 -51 -86 -69 -86 -13 0 -14
25 -2 68 5 17 6 32 1 32 -5 0 -12 -10 -16 -22 -7 -26 -33 -58 -45 -58 -4 0 -9
28 -11 63 l-3 62 -32 -62z m331 13 c-3 -9 -10 -16 -15 -16 -6 0 -5 9 1 21 13
24 24 20 14 -5z m-150 -170 c-6 -25 -24 -37 -24 -15 0 15 21 52 26 46 3 -3 2
-16 -2 -31z"/>
<path d="M1110 275 c0 -8 2 -15 4 -15 2 0 6 7 10 15 3 8 1 15 -4 15 -6 0 -10
-7 -10 -15z"/>
</g>
</svg>
